<svg width="439" height="145" viewBox="0 0 439 145" fill="none" xmlns="http://www.w3.org/2000/svg">
<path d="M155.262 141.68C156.577 141.68 157.658 141.543 158.504 141.27C160.014 140.762 161.251 139.785 162.215 138.34C162.983 137.181 163.536 135.697 163.875 133.887C164.07 132.806 164.168 131.803 164.168 130.879C164.168 127.324 163.458 124.564 162.039 122.598C160.633 120.632 158.361 119.648 155.223 119.648H148.328V141.68H155.262ZM144.422 116.309H156.043C159.988 116.309 163.048 117.708 165.223 120.508C167.163 123.034 168.133 126.27 168.133 130.215C168.133 133.262 167.56 136.016 166.414 138.477C164.396 142.826 160.926 145 156.004 145H144.422V116.309ZM182.031 116.309H185.957V145H182.031V116.309ZM215.012 133.242L210.656 120.566L206.027 133.242H215.012ZM208.625 116.309H213.02L223.43 145H219.172L216.262 136.406H204.914L201.809 145H197.824L208.625 116.309ZM248.305 129.453C250.128 129.453 251.566 129.089 252.621 128.359C253.689 127.63 254.223 126.315 254.223 124.414C254.223 122.37 253.48 120.977 251.996 120.234C251.202 119.844 250.141 119.648 248.812 119.648H239.32V129.453H248.305ZM235.434 116.309H248.715C250.902 116.309 252.706 116.628 254.125 117.266C256.82 118.49 258.168 120.749 258.168 124.043C258.168 125.762 257.81 127.168 257.094 128.262C256.391 129.355 255.401 130.234 254.125 130.898C255.245 131.354 256.085 131.953 256.645 132.695C257.217 133.438 257.536 134.642 257.602 136.309L257.738 140.156C257.777 141.25 257.868 142.064 258.012 142.598C258.246 143.509 258.663 144.095 259.262 144.355V145H254.496C254.366 144.753 254.262 144.434 254.184 144.043C254.105 143.652 254.04 142.897 253.988 141.777L253.754 136.992C253.663 135.117 252.966 133.861 251.664 133.223C250.922 132.871 249.757 132.695 248.168 132.695H239.32V145H235.434V116.309ZM268.941 116.309H273.473L281.715 130.098L289.957 116.309H294.508L283.668 133.438V145H279.781V133.438L268.941 116.309Z" fill="black"/>
<path d="M71.5048 69.5092C70.1512 71.5527 68.4671 73.4704 66.4681 75.2781C64.4692 77.0858 62.187 78.6577 59.6057 79.9781C57.0401 81.2984 54.2542 82.3359 51.2795 83.0904C48.289 83.8449 45.141 84.2222 41.82 84.2222C35.8547 84.2222 30.3144 83.169 25.2148 81.0469C20.1152 78.9406 15.6923 76.0169 11.9621 72.2758C8.23178 68.5347 5.28849 64.1019 3.17938 58.9775C1.07028 53.8531 0 48.2258 0 42.1111C0 35.9964 1.05454 30.3847 3.17938 25.2446C5.28849 20.1203 8.21604 15.6875 11.9621 11.9464C15.7081 8.2053 20.1152 5.28157 25.2148 3.17523C30.3144 1.06889 35.8547 0 41.82 0C46.8094 0 51.7989 0.97458 56.7726 2.93945C61.762 4.90432 66.0274 8.14242 69.5846 12.6695L62.4388 17.9825C61.6046 16.6935 60.4714 15.4203 59.0391 14.1313C57.6068 12.8424 55.9541 11.7106 54.1126 10.7361C52.2553 9.76148 50.2721 8.95981 48.163 8.36249C46.0539 7.76517 43.9291 7.45079 41.82 7.45079C36.6732 7.45079 32.0772 8.39392 28.0007 10.2802C23.9241 12.1665 20.4614 14.6972 17.6283 17.8567C14.7952 21.032 12.6231 24.7102 11.1121 28.8914C9.60113 33.0727 8.84563 37.474 8.84563 42.0796C8.84563 46.6853 9.60113 51.0709 11.1121 55.2679C12.6231 59.4491 14.7952 63.1273 17.6283 66.3026C20.4614 69.4778 23.9241 71.9928 28.0007 73.8791C32.0772 75.7654 36.6889 76.7085 41.82 76.7085C43.9291 76.7085 46.0225 76.5199 48.1158 76.1426C50.1934 75.7654 52.2396 75.1209 54.2385 74.2249C56.2374 73.3132 58.1262 72.0871 59.9047 70.5467C61.6833 69.0062 63.3202 67.0571 64.8312 64.7149L71.5205 69.4621L71.5048 69.5092Z" fill="black"/>
<path d="M124.88 82.1743H116.727V2.03906H124.88V82.1743Z" fill="black"/>
<path d="M203.856 82.1859H195.703V9.53291H168.852V2.06641H230.724V9.53291H203.872V82.1859H203.856Z" fill="black"/>
<path d="M300.427 82.1859H292.274V9.53291H265.422V2.06641H327.294V9.53291H300.442V82.1859H300.427Z" fill="black"/>
<path d="M369.89 82.1743H360.367L395.278 2.03906H403.21L438.121 82.1743H428.598L419.753 61.1266H378.735L369.89 82.1743ZM381.789 53.6601H416.573L399.228 11.5647L381.773 53.6601H381.789Z" fill="black"/>
</svg>
