<svg width="14" height="8" viewBox="0 0 14 8" fill="none" xmlns="http://www.w3.org/2000/svg">
<path fill-rule="evenodd" clip-rule="evenodd" d="M13.8531 3.64608C13.8997 3.69251 13.9366 3.74768 13.9618 3.80841C13.987 3.86914 14 3.93425 14 4C14 4.06575 13.987 4.13086 13.9618 4.19159C13.9366 4.25232 13.8997 4.30749 13.8531 4.35392L10.3533 7.85314C10.2834 7.92323 10.1942 7.97098 10.0971 7.99035C10 8.00971 9.89938 7.99981 9.80791 7.9619C9.71644 7.92399 9.63829 7.85978 9.58337 7.77741C9.52844 7.69504 9.49922 7.59822 9.49939 7.49922L9.49939 4.99978L0.999936 4.99978C0.734736 4.99978 0.480399 4.89444 0.292875 4.70695C0.10535 4.51945 -1.86436e-07 4.26516 -1.74846e-07 4C-1.63255e-07 3.73484 0.10535 3.48055 0.292875 3.29305C0.480399 3.10556 0.734736 3.00022 0.999936 3.00022L9.49939 3.00022L9.49939 0.500783C9.49922 0.401784 9.52844 0.304962 9.58337 0.222591C9.63829 0.140221 9.71644 0.0760108 9.80791 0.0381018C9.89938 0.000192736 10 -0.00970813 10.0971 0.00965433C10.1942 0.0290168 10.2834 0.0767705 10.3533 0.146862L13.8531 3.64608Z" fill="white"/>
</svg>
